<?xml version="1.0" encoding="UTF-8" standalone="no"?>
<!DOCTYPE svg PUBLIC "-//W3C//DTD SVG 1.1//EN"
 "http://www.w3.org/Graphics/SVG/1.1/DTD/svg11.dtd">
<!-- Generated by graphviz version 2.40.1 (0)
 -->
<!-- Title: snakemake_dag Pages: 1 -->
<svg width="527pt" height="420pt"
 viewBox="0.00 0.00 527.41 420.00" xmlns="http://www.w3.org/2000/svg" xmlns:xlink="http://www.w3.org/1999/xlink">
<g id="graph0" class="graph" transform="scale(1 1) rotate(0) translate(4 416)">
<title>snakemake_dag</title>
<polygon fill="#ffffff" stroke="transparent" points="-4,4 -4,-416 523.4128,-416 523.4128,4 -4,4"/>
<!-- 0 -->
<g id="node1" class="node">
<title>0</title>
<path fill="none" stroke="#80d856" stroke-width="2" d="M265.9128,-36C265.9128,-36 186.9128,-36 186.9128,-36 180.9128,-36 174.9128,-30 174.9128,-24 174.9128,-24 174.9128,-12 174.9128,-12 174.9128,-6 180.9128,0 186.9128,0 186.9128,0 265.9128,0 265.9128,0 271.9128,0 277.9128,-6 277.9128,-12 277.9128,-12 277.9128,-24 277.9128,-24 277.9128,-30 271.9128,-36 265.9128,-36"/>
<text text-anchor="middle" x="226.4128" y="-15.5" font-family="sans" font-size="10.00" fill="#000000">mdl_o_scenicplus</text>
</g>
<!-- 1 -->
<g id="node2" class="node">
<title>1</title>
<path fill="none" stroke="#5663d8" stroke-width="2" stroke-dasharray="5,2" d="M129.9128,-196C129.9128,-196 28.9128,-196 28.9128,-196 22.9128,-196 16.9128,-190 16.9128,-184 16.9128,-184 16.9128,-172 16.9128,-172 16.9128,-166 22.9128,-160 28.9128,-160 28.9128,-160 129.9128,-160 129.9128,-160 135.9128,-160 141.9128,-166 141.9128,-172 141.9128,-172 141.9128,-184 141.9128,-184 141.9128,-190 135.9128,-196 129.9128,-196"/>
<text text-anchor="middle" x="79.4128" y="-181" font-family="sans" font-size="10.00" fill="#000000">dwn_image</text>
<text text-anchor="middle" x="79.4128" y="-170" font-family="sans" font-size="10.00" fill="#000000">name_img: scenicplus</text>
</g>
<!-- 1&#45;&gt;0 -->
<g id="edge1" class="edge">
<title>1&#45;&gt;0</title>
<path fill="none" stroke="#c0c0c0" stroke-width="2" d="M43.9774,-159.8842C30.5787,-151.0325 16.7929,-139.0142 9.4128,-124 -.7823,-103.2591 -4.82,-90.2086 9.4128,-72 28.4148,-47.6899 107.4823,-32.7498 164.6973,-24.9162"/>
<polygon fill="#c0c0c0" stroke="#c0c0c0" stroke-width="2" points="165.2968,-28.3674 174.749,-23.5815 164.3753,-21.4283 165.2968,-28.3674"/>
</g>
<!-- 11 -->
<g id="node12" class="node">
<title>11</title>
<path fill="none" stroke="#d87d56" stroke-width="2" stroke-dasharray="5,2" d="M128.4128,-116C128.4128,-116 30.4128,-116 30.4128,-116 24.4128,-116 18.4128,-110 18.4128,-104 18.4128,-104 18.4128,-92 18.4128,-92 18.4128,-86 24.4128,-80 30.4128,-80 30.4128,-80 128.4128,-80 128.4128,-80 134.4128,-80 140.4128,-86 140.4128,-92 140.4128,-92 140.4128,-104 140.4128,-104 140.4128,-110 134.4128,-116 128.4128,-116"/>
<text text-anchor="middle" x="79.4128" y="-95.5" font-family="sans" font-size="10.00" fill="#000000">gen_motif_scenicplus</text>
</g>
<!-- 1&#45;&gt;11 -->
<g id="edge16" class="edge">
<title>1&#45;&gt;11</title>
<path fill="none" stroke="#c0c0c0" stroke-width="2" d="M79.4128,-159.8468C79.4128,-149.9251 79.4128,-137.4167 79.4128,-126.2492"/>
<polygon fill="#c0c0c0" stroke="#c0c0c0" stroke-width="2" points="82.9129,-126.0814 79.4128,-116.0814 75.9129,-126.0814 82.9129,-126.0814"/>
</g>
<!-- 12 -->
<g id="node13" class="node">
<title>12</title>
<path fill="none" stroke="#d6d856" stroke-width="2" stroke-dasharray="5,2" d="M282.4128,-116C282.4128,-116 170.4128,-116 170.4128,-116 164.4128,-116 158.4128,-110 158.4128,-104 158.4128,-104 158.4128,-92 158.4128,-92 158.4128,-86 164.4128,-80 170.4128,-80 170.4128,-80 282.4128,-80 282.4128,-80 288.4128,-80 294.4128,-86 294.4128,-92 294.4128,-92 294.4128,-104 294.4128,-104 294.4128,-110 288.4128,-116 282.4128,-116"/>
<text text-anchor="middle" x="226.4128" y="-95.5" font-family="sans" font-size="10.00" fill="#000000">gen_genome_scenicplus</text>
</g>
<!-- 1&#45;&gt;12 -->
<g id="edge17" class="edge">
<title>1&#45;&gt;12</title>
<path fill="none" stroke="#c0c0c0" stroke-width="2" d="M112.7694,-159.8468C133.9136,-148.3397 161.4515,-133.3531 184.1236,-121.0145"/>
<polygon fill="#c0c0c0" stroke="#c0c0c0" stroke-width="2" points="186.0778,-123.9358 193.1882,-116.0814 182.7316,-117.7874 186.0778,-123.9358"/>
</g>
<!-- 2 -->
<g id="node3" class="node">
<title>2</title>
<path fill="none" stroke="#56d8b9" stroke-width="2" d="M383.9128,-124C383.9128,-124 324.9128,-124 324.9128,-124 318.9128,-124 312.9128,-118 312.9128,-112 312.9128,-112 312.9128,-84 312.9128,-84 312.9128,-78 318.9128,-72 324.9128,-72 324.9128,-72 383.9128,-72 383.9128,-72 389.9128,-72 395.9128,-78 395.9128,-84 395.9128,-84 395.9128,-112 395.9128,-112 395.9128,-118 389.9128,-124 383.9128,-124"/>
<text text-anchor="middle" x="354.4128" y="-112" font-family="sans" font-size="10.00" fill="#000000">extract_case</text>
<text text-anchor="middle" x="354.4128" y="-101" font-family="sans" font-size="10.00" fill="#000000">case: all</text>
<text text-anchor="middle" x="354.4128" y="-90" font-family="sans" font-size="10.00" fill="#000000">dat: pbmc10k</text>
<text text-anchor="middle" x="354.4128" y="-79" font-family="sans" font-size="10.00" fill="#000000">org: hg38</text>
</g>
<!-- 2&#45;&gt;0 -->
<g id="edge2" class="edge">
<title>2&#45;&gt;0</title>
<path fill="none" stroke="#c0c0c0" stroke-width="2" d="M312.8549,-72.0263C297.1112,-62.1865 279.2929,-51.0501 263.9414,-41.4554"/>
<polygon fill="#c0c0c0" stroke="#c0c0c0" stroke-width="2" points="265.557,-38.3378 255.222,-36.0058 261.847,-44.2738 265.557,-38.3378"/>
</g>
<!-- 3 -->
<g id="node4" class="node">
<title>3</title>
<path fill="none" stroke="#567bd8" stroke-width="2" d="M366.4128,-196C366.4128,-196 280.4128,-196 280.4128,-196 274.4128,-196 268.4128,-190 268.4128,-184 268.4128,-184 268.4128,-172 268.4128,-172 268.4128,-166 274.4128,-160 280.4128,-160 280.4128,-160 366.4128,-160 366.4128,-160 372.4128,-160 378.4128,-166 378.4128,-172 378.4128,-172 378.4128,-184 378.4128,-184 378.4128,-190 372.4128,-196 366.4128,-196"/>
<text text-anchor="middle" x="323.4128" y="-175.5" font-family="sans" font-size="10.00" fill="#000000">annotate_pbmc10k</text>
</g>
<!-- 3&#45;&gt;2 -->
<g id="edge6" class="edge">
<title>3&#45;&gt;2</title>
<path fill="none" stroke="#c0c0c0" stroke-width="2" d="M330.4472,-159.8468C333.4382,-152.1278 337.036,-142.8432 340.5238,-133.8425"/>
<polygon fill="#c0c0c0" stroke="#c0c0c0" stroke-width="2" points="343.8816,-134.8637 344.2314,-124.2746 337.3545,-132.3344 343.8816,-134.8637"/>
</g>
<!-- 4 -->
<g id="node5" class="node">
<title>4</title>
<path fill="none" stroke="#56c1d8" stroke-width="2" stroke-dasharray="5,2" d="M342.4128,-340C342.4128,-340 256.4128,-340 256.4128,-340 250.4128,-340 244.4128,-334 244.4128,-328 244.4128,-328 244.4128,-316 244.4128,-316 244.4128,-310 250.4128,-304 256.4128,-304 256.4128,-304 342.4128,-304 342.4128,-304 348.4128,-304 354.4128,-310 354.4128,-316 354.4128,-316 354.4128,-328 354.4128,-328 354.4128,-334 348.4128,-340 342.4128,-340"/>
<text text-anchor="middle" x="299.4128" y="-319.5" font-family="sans" font-size="10.00" fill="#000000">prcannot_pbmc10k</text>
</g>
<!-- 4&#45;&gt;3 -->
<g id="edge7" class="edge">
<title>4&#45;&gt;3</title>
<path fill="none" stroke="#c0c0c0" stroke-width="2" d="M302.4524,-303.7623C306.564,-279.0928 313.9362,-234.8598 318.7506,-205.9731"/>
<polygon fill="#c0c0c0" stroke="#c0c0c0" stroke-width="2" points="322.2062,-206.529 320.3978,-196.0896 315.3014,-205.3781 322.2062,-206.529"/>
</g>
<!-- 6 -->
<g id="node7" class="node">
<title>6</title>
<path fill="none" stroke="#9fd856" stroke-width="2" d="M258.9128,-268C258.9128,-268 169.9128,-268 169.9128,-268 163.9128,-268 157.9128,-262 157.9128,-256 157.9128,-256 157.9128,-244 157.9128,-244 157.9128,-238 163.9128,-232 169.9128,-232 169.9128,-232 258.9128,-232 258.9128,-232 264.9128,-232 270.9128,-238 270.9128,-244 270.9128,-244 270.9128,-256 270.9128,-256 270.9128,-262 264.9128,-268 258.9128,-268"/>
<text text-anchor="middle" x="214.4128" y="-247.5" font-family="sans" font-size="10.00" fill="#000000">callpeaks_pbmc10k</text>
</g>
<!-- 4&#45;&gt;6 -->
<g id="edge12" class="edge">
<title>4&#45;&gt;6</title>
<path fill="none" stroke="#c0c0c0" stroke-width="2" d="M277.9637,-303.8314C267.595,-295.0485 254.9899,-284.3712 243.7482,-274.8489"/>
<polygon fill="#c0c0c0" stroke="#c0c0c0" stroke-width="2" points="245.7477,-271.9556 235.855,-268.1628 241.2233,-277.297 245.7477,-271.9556"/>
</g>
<!-- 5 -->
<g id="node6" class="node">
<title>5</title>
<path fill="none" stroke="#5663d8" stroke-width="2" stroke-dasharray="5,2" d="M434.9128,-412C434.9128,-412 329.9128,-412 329.9128,-412 323.9128,-412 317.9128,-406 317.9128,-400 317.9128,-400 317.9128,-388 317.9128,-388 317.9128,-382 323.9128,-376 329.9128,-376 329.9128,-376 434.9128,-376 434.9128,-376 440.9128,-376 446.9128,-382 446.9128,-388 446.9128,-388 446.9128,-400 446.9128,-400 446.9128,-406 440.9128,-412 434.9128,-412"/>
<text text-anchor="middle" x="382.4128" y="-397" font-family="sans" font-size="10.00" fill="#000000">dwn_image</text>
<text text-anchor="middle" x="382.4128" y="-386" font-family="sans" font-size="10.00" fill="#000000">name_img: gretabench</text>
</g>
<!-- 5&#45;&gt;4 -->
<g id="edge10" class="edge">
<title>5&#45;&gt;4</title>
<path fill="none" stroke="#c0c0c0" stroke-width="2" d="M361.4684,-375.8314C351.3437,-367.0485 339.0351,-356.3712 328.058,-346.8489"/>
<polygon fill="#c0c0c0" stroke="#c0c0c0" stroke-width="2" points="330.1979,-344.0718 320.3505,-340.1628 325.6109,-349.3595 330.1979,-344.0718"/>
</g>
<!-- 9 -->
<g id="node10" class="node">
<title>9</title>
<path fill="none" stroke="#56d863" stroke-width="2" stroke-dasharray="5,2" d="M411.4128,-268C411.4128,-268 339.4128,-268 339.4128,-268 333.4128,-268 327.4128,-262 327.4128,-256 327.4128,-256 327.4128,-244 327.4128,-244 327.4128,-238 333.4128,-232 339.4128,-232 339.4128,-232 411.4128,-232 411.4128,-232 417.4128,-232 423.4128,-238 423.4128,-244 423.4128,-244 423.4128,-256 423.4128,-256 423.4128,-262 417.4128,-268 411.4128,-268"/>
<text text-anchor="middle" x="375.4128" y="-247.5" font-family="sans" font-size="10.00" fill="#000000">gen_gid_ensmbl</text>
</g>
<!-- 5&#45;&gt;9 -->
<g id="edge14" class="edge">
<title>5&#45;&gt;9</title>
<path fill="none" stroke="#c0c0c0" stroke-width="2" d="M381.5262,-375.7623C380.3323,-351.201 378.1956,-307.2474 376.7911,-278.3541"/>
<polygon fill="#c0c0c0" stroke="#c0c0c0" stroke-width="2" points="380.2736,-277.9079 376.2921,-268.0896 373.2819,-278.2478 380.2736,-277.9079"/>
</g>
<!-- 10 -->
<g id="node11" class="node">
<title>10</title>
<path fill="none" stroke="#d6d856" stroke-width="2" stroke-dasharray="5,2" d="M507.4128,-268C507.4128,-268 453.4128,-268 453.4128,-268 447.4128,-268 441.4128,-262 441.4128,-256 441.4128,-256 441.4128,-244 441.4128,-244 441.4128,-238 447.4128,-232 453.4128,-232 453.4128,-232 507.4128,-232 507.4128,-232 513.4128,-232 519.4128,-238 519.4128,-244 519.4128,-244 519.4128,-256 519.4128,-256 519.4128,-262 513.4128,-268 507.4128,-268"/>
<text text-anchor="middle" x="480.4128" y="-247.5" font-family="sans" font-size="10.00" fill="#000000">cre_blacklist</text>
</g>
<!-- 5&#45;&gt;10 -->
<g id="edge15" class="edge">
<title>5&#45;&gt;10</title>
<path fill="none" stroke="#c0c0c0" stroke-width="2" d="M394.8246,-375.7623C411.908,-350.66 442.7769,-305.3017 462.4005,-276.4671"/>
<polygon fill="#c0c0c0" stroke="#c0c0c0" stroke-width="2" points="465.369,-278.326 468.1018,-268.0896 459.582,-274.3876 465.369,-278.326"/>
</g>
<!-- 6&#45;&gt;3 -->
<g id="edge8" class="edge">
<title>6&#45;&gt;3</title>
<path fill="none" stroke="#c0c0c0" stroke-width="2" d="M241.9181,-231.8314C255.7308,-222.7074 272.6384,-211.539 287.4657,-201.7449"/>
<polygon fill="#c0c0c0" stroke="#c0c0c0" stroke-width="2" points="289.5014,-204.5949 295.9163,-196.1628 285.6432,-198.7541 289.5014,-204.5949"/>
</g>
<!-- 7 -->
<g id="node8" class="node">
<title>7</title>
<path fill="none" stroke="#d85e56" stroke-width="2" stroke-dasharray="5,2" d="M214.4128,-340C214.4128,-340 124.4128,-340 124.4128,-340 118.4128,-340 112.4128,-334 112.4128,-328 112.4128,-328 112.4128,-316 112.4128,-316 112.4128,-310 118.4128,-304 124.4128,-304 124.4128,-304 214.4128,-304 214.4128,-304 220.4128,-304 226.4128,-310 226.4128,-316 226.4128,-316 226.4128,-328 226.4128,-328 226.4128,-334 220.4128,-340 214.4128,-340"/>
<text text-anchor="middle" x="169.4128" y="-319.5" font-family="sans" font-size="10.00" fill="#000000">download_pbmc10k</text>
</g>
<!-- 7&#45;&gt;6 -->
<g id="edge11" class="edge">
<title>7&#45;&gt;6</title>
<path fill="none" stroke="#c0c0c0" stroke-width="2" d="M180.7682,-303.8314C185.8454,-295.7079 191.9355,-285.9637 197.5304,-277.0118"/>
<polygon fill="#c0c0c0" stroke="#c0c0c0" stroke-width="2" points="200.5725,-278.7483 202.9045,-268.4133 194.6365,-275.0383 200.5725,-278.7483"/>
</g>
<!-- 8 -->
<g id="node9" class="node">
<title>8</title>
<path fill="none" stroke="#5663d8" stroke-width="2" stroke-dasharray="5,2" d="M202.4128,-412C202.4128,-412 136.4128,-412 136.4128,-412 130.4128,-412 124.4128,-406 124.4128,-400 124.4128,-400 124.4128,-388 124.4128,-388 124.4128,-382 130.4128,-376 136.4128,-376 136.4128,-376 202.4128,-376 202.4128,-376 208.4128,-376 214.4128,-382 214.4128,-388 214.4128,-388 214.4128,-400 214.4128,-400 214.4128,-406 208.4128,-412 202.4128,-412"/>
<text text-anchor="middle" x="169.4128" y="-397" font-family="sans" font-size="10.00" fill="#000000">dwn_image</text>
<text text-anchor="middle" x="169.4128" y="-386" font-family="sans" font-size="10.00" fill="#000000">name_img: figr</text>
</g>
<!-- 8&#45;&gt;7 -->
<g id="edge13" class="edge">
<title>8&#45;&gt;7</title>
<path fill="none" stroke="#c0c0c0" stroke-width="2" d="M169.4128,-375.8314C169.4128,-368.131 169.4128,-358.9743 169.4128,-350.4166"/>
<polygon fill="#c0c0c0" stroke="#c0c0c0" stroke-width="2" points="172.9129,-350.4132 169.4128,-340.4133 165.9129,-350.4133 172.9129,-350.4132"/>
</g>
<!-- 9&#45;&gt;3 -->
<g id="edge9" class="edge">
<title>9&#45;&gt;3</title>
<path fill="none" stroke="#c0c0c0" stroke-width="2" d="M362.291,-231.8314C356.3629,-223.6232 349.2398,-213.7606 342.7194,-204.7323"/>
<polygon fill="#c0c0c0" stroke="#c0c0c0" stroke-width="2" points="345.4036,-202.4708 336.7113,-196.4133 339.7288,-206.5693 345.4036,-202.4708"/>
</g>
<!-- 10&#45;&gt;0 -->
<g id="edge3" class="edge">
<title>10&#45;&gt;0</title>
<path fill="none" stroke="#c0c0c0" stroke-width="2" d="M477.8339,-231.9473C471.7591,-196.123 453.1996,-115.7396 404.4128,-72 386.9765,-56.3676 332.1667,-41.116 287.9258,-30.8311"/>
<polygon fill="#c0c0c0" stroke="#c0c0c0" stroke-width="2" points="288.6184,-27.3992 278.0901,-28.5848 287.0598,-34.2235 288.6184,-27.3992"/>
</g>
<!-- 11&#45;&gt;0 -->
<g id="edge4" class="edge">
<title>11&#45;&gt;0</title>
<path fill="none" stroke="#c0c0c0" stroke-width="2" d="M112.7694,-79.8468C133.9136,-68.3397 161.4515,-53.3531 184.1236,-41.0145"/>
<polygon fill="#c0c0c0" stroke="#c0c0c0" stroke-width="2" points="186.0778,-43.9358 193.1882,-36.0814 182.7316,-37.7874 186.0778,-43.9358"/>
</g>
<!-- 12&#45;&gt;0 -->
<g id="edge5" class="edge">
<title>12&#45;&gt;0</title>
<path fill="none" stroke="#c0c0c0" stroke-width="2" d="M226.4128,-79.8468C226.4128,-69.9251 226.4128,-57.4167 226.4128,-46.2492"/>
<polygon fill="#c0c0c0" stroke="#c0c0c0" stroke-width="2" points="229.9129,-46.0814 226.4128,-36.0814 222.9129,-46.0814 229.9129,-46.0814"/>
</g>
</g>
</svg>
